<svg xmlns:xlink="http://www.w3.org/1999/xlink" width="24" xmlns="http://www.w3.org/2000/svg" height="18.947" id="screenshot-24087c8f-ea53-8094-8002-edd30cb04b62" viewBox="31 -1457 24 18.947" style="-webkit-print-color-adjust: exact;" fill="none" version="1.1"><g id="shape-24087c8f-ea53-8094-8002-edd30cb04b62"><g class="fills" id="fills-24087c8f-ea53-8094-8002-edd30cb04b62"><path stroke-linejoin="round" rx="0" ry="0" d="M34.789,-1457.000L51.211,-1457.000C53.303,-1457.000,55.000,-1455.303,55.000,-1453.211L55.000,-1441.842C55.000,-1439.749,53.303,-1438.053,51.211,-1438.053L34.789,-1438.053C32.697,-1438.053,31.000,-1439.749,31.000,-1441.842L31.000,-1453.211C31.000,-1455.303,32.697,-1457.000,34.789,-1457.000ZZM34.789,-1455.737C34.173,-1455.737,33.608,-1455.516,33.169,-1455.149L43.000,-1448.764L52.831,-1455.149C52.392,-1455.516,51.827,-1455.737,51.211,-1455.737L34.789,-1455.737ZZM43.000,-1447.258L32.432,-1454.121C32.323,-1453.838,32.263,-1453.531,32.263,-1453.211L32.263,-1441.842C32.263,-1440.447,33.394,-1439.316,34.789,-1439.316L51.211,-1439.316C52.606,-1439.316,53.737,-1440.447,53.737,-1441.842L53.737,-1453.211C53.737,-1453.531,53.677,-1453.838,53.568,-1454.121L43.000,-1447.258ZZ" style="fill: rgb(0, 0, 0); fill-opacity: 1;"/></g></g></svg>