<svg xmlns:xlink="http://www.w3.org/1999/xlink" width="24" xmlns="http://www.w3.org/2000/svg" height="24" id="screenshot-24087c8f-ea53-8094-8002-edd30cb04b63" viewBox="-65 -1460 24 24" style="-webkit-print-color-adjust: exact;" fill="none" version="1.1"><g id="shape-24087c8f-ea53-8094-8002-edd30cb04b63"><g class="fills" id="fills-24087c8f-ea53-8094-8002-edd30cb04b63"><path stroke-linejoin="miter" rx="0" ry="0" d="M-42.895,-1436.000C-41.850,-1436.000,-41.000,-1436.850,-41.000,-1437.895L-41.000,-1442.316C-41.000,-1443.361,-41.850,-1444.211,-42.895,-1444.211C-44.373,-1444.211,-45.824,-1444.442,-47.215,-1444.901C-47.886,-1445.117,-48.621,-1444.941,-49.139,-1444.442L-50.957,-1442.624C-54.092,-1444.322,-56.707,-1446.935,-58.391,-1450.056L-56.587,-1451.870C-56.066,-1452.353,-55.879,-1453.087,-56.101,-1453.793C-56.558,-1455.176,-56.789,-1456.627,-56.789,-1458.105C-56.789,-1459.150,-57.639,-1460.000,-58.684,-1460.000L-63.105,-1460.000C-64.150,-1460.000,-65.000,-1459.150,-65.000,-1458.105C-65.000,-1445.917,-55.083,-1436.000,-42.895,-1436.000ZZM-63.105,-1458.737L-58.684,-1458.737C-58.336,-1458.737,-58.053,-1458.454,-58.053,-1458.105C-58.053,-1456.492,-57.800,-1454.908,-57.303,-1453.406C-57.247,-1453.227,-57.255,-1452.972,-57.464,-1452.778L-59.935,-1450.296C-57.868,-1446.218,-54.812,-1443.163,-50.717,-1441.079L-48.255,-1443.541C-48.077,-1443.712,-47.829,-1443.771,-47.603,-1443.700C-46.092,-1443.200,-44.508,-1442.947,-42.895,-1442.947C-42.547,-1442.947,-42.263,-1442.664,-42.263,-1442.316L-42.263,-1437.895C-42.263,-1437.547,-42.547,-1437.263,-42.895,-1437.263C-54.387,-1437.263,-63.737,-1446.613,-63.737,-1458.105C-63.737,-1458.454,-63.454,-1458.737,-63.105,-1458.737ZZ" style="fill: rgb(0, 0, 0); fill-opacity: 1;"/></g></g></svg>