<svg xmlns:xlink="http://www.w3.org/1999/xlink" width="24" xmlns="http://www.w3.org/2000/svg" height="24" id="screenshot-24087c8f-ea53-8094-8002-edd30cb04b60" viewBox="-113 -1460 24 24" style="-webkit-print-color-adjust: exact;" fill="none" version="1.1"><g id="shape-24087c8f-ea53-8094-8002-edd30cb04b60"><g class="fills" id="fills-24087c8f-ea53-8094-8002-edd30cb04b60"><path stroke-linejoin="round" rx="0" ry="0" d="M-101.000,-1445.600C-94.373,-1445.600,-89.000,-1443.093,-89.000,-1440.000L-89.000,-1436.000L-113.000,-1436.000L-113.000,-1440.000C-113.000,-1443.093,-107.627,-1445.600,-101.000,-1445.600ZL-101.000,-1445.600ZM-90.600,-1440.000C-90.600,-1442.209,-95.256,-1444.000,-101.000,-1444.000C-106.744,-1444.000,-111.400,-1442.209,-111.400,-1440.000L-111.400,-1437.600L-90.600,-1437.600L-90.600,-1440.000ZL-90.600,-1440.000ZM-101.000,-1460.000C-97.907,-1460.000,-95.400,-1457.493,-95.400,-1454.400C-95.400,-1451.307,-97.907,-1448.800,-101.000,-1448.800C-104.093,-1448.800,-106.600,-1451.307,-106.600,-1454.400C-106.600,-1457.493,-104.093,-1460.000,-101.000,-1460.000ZL-101.000,-1460.000ZM-101.000,-1458.400C-103.209,-1458.400,-105.000,-1456.609,-105.000,-1454.400C-105.000,-1452.191,-103.209,-1450.400,-101.000,-1450.400C-98.791,-1450.400,-97.000,-1452.191,-97.000,-1454.400C-97.000,-1456.609,-98.791,-1458.400,-101.000,-1458.400ZL-101.000,-1458.400Z" style="fill: rgb(0, 0, 0); fill-opacity: 1;"/></g></g></svg>