<svg xmlns:xlink="http://www.w3.org/1999/xlink" width="24" xmlns="http://www.w3.org/2000/svg" height="24" id="screenshot-24087c8f-ea53-8094-8002-edd30cb04b61" viewBox="-17 -1460 24 24" style="-webkit-print-color-adjust: exact;" fill="none" version="1.1"><g id="shape-24087c8f-ea53-8094-8002-edd30cb04b61"><g class="fills" id="fills-24087c8f-ea53-8094-8002-edd30cb04b61"><path stroke-linejoin="round" rx="0" ry="0" d="M-13.211,-1460.000L3.211,-1460.000C5.303,-1460.000,7.000,-1458.303,7.000,-1456.211L7.000,-1444.842C7.000,-1442.749,5.303,-1441.053,3.211,-1441.053L-2.582,-1441.053L-7.265,-1436.370C-7.493,-1436.141,-7.809,-1436.000,-8.158,-1436.000C-8.856,-1436.000,-9.421,-1436.566,-9.421,-1437.263L-9.421,-1441.053L-13.211,-1441.053C-15.303,-1441.053,-17.000,-1442.749,-17.000,-1444.842L-17.000,-1456.211C-17.000,-1458.303,-15.303,-1460.000,-13.211,-1460.000ZZM3.211,-1458.737L-13.211,-1458.737C-14.606,-1458.737,-15.737,-1457.606,-15.737,-1456.211L-15.737,-1444.842C-15.737,-1443.447,-14.606,-1442.316,-13.211,-1442.316L-8.158,-1442.316L-8.158,-1437.263L-3.105,-1442.316L3.211,-1442.316C4.606,-1442.316,5.737,-1443.447,5.737,-1444.842L5.737,-1456.211C5.737,-1457.606,4.606,-1458.737,3.211,-1458.737ZZ" style="fill: rgb(0, 0, 0); fill-opacity: 1;"/></g></g></svg>